<?xml version="1.0" encoding="iso-8859-1"?>
<!-- Generator: Adobe Illustrator 18.1.1, SVG Export Plug-In . SVG Version: 6.00 Build 0)  -->
<svg version="1.1" id="Capa_1" xmlns="http://www.w3.org/2000/svg" xmlns:xlink="http://www.w3.org/1999/xlink" x="0px" y="0px"
	 viewBox="0 0 302.913 302.913" style="enable-background:new 0 0 302.913 302.913;" xml:space="preserve">
<g>
	<path style="fill:#010002;" d="M170.398,137.846c-8.8-6.679-23.595-6.054-33.907-6.337c-12.276-0.337-9.274-6.315-6.777-16.132
		c3.856-15.159,19.156-12.363,31.432-12.004c17.552,0.517,17.497-26.679,0-27.195c-4.047-0.125-8.044-0.267-11.944-0.288
		c-0.462-4.449-0.56-8.926-0.566-13.532c-0.011-17.541-27.206-17.541-27.195,0c0.005,6.184,0.256,12.325,1.006,18.411
		c-5.107,2.725-9.643,6.886-13.369,13.228c-7.517,12.787-13.424,35.887-5.363,49.642c9.263,15.806,28.044,14.745,43.986,15.485
		c14.985,0.696,17.008,15.208,17.737,27.07c0.392,6.418-0.566,13.25-3.095,19.167c-6.87,16.04-26.918-5.836-22.012-17.965
		c6.576-16.268-19.738-23.268-26.227-7.234c-9.774,24.177,6.978,45.057,28.229,54.739c0,5.586,0,11.177,0,16.763
		c0,17.541,27.195,17.541,27.195,0c0-5.515,0-11.025,0-16.54c11.754-6.511,19.679-21.196,22.039-34.19
		C195.809,177.53,189.625,152.423,170.398,137.846z"/>
	<path style="fill:#010002;" d="M256.596,108.649C249.547,60.334,224.364-5.837,165.644,0.412c-0.082-0.005-0.141-0.027-0.218-0.027
		C115.55-0.36,68.089,16.816,53.137,68.455c-12.798,44.192-12.184,98.714-3.976,143.455c8.148,44.405,34.478,74.526,77.588,87.03
		c30.1,8.724,60.374,3.002,84.735-16.41C259.326,244.425,264.678,164.052,256.596,108.649z M204.082,251.224
		c-13.38,17.166-31.819,25.27-53.384,24.438c-36.708-1.42-62.163-24.829-72.421-58.894c-11.123-36.92-7.609-78.589-2.986-116.298
		c2.774-22.594,6.94-44.176,26.407-58.519c17.927-13.206,42.365-14.691,63.735-14.375c1.441,0.022,2.714-0.196,3.916-0.517
		c41.07-6.119,55.712,55.761,60.439,84.779C237.064,156.513,232.903,214.238,204.082,251.224z"/>
</g>
<g>
</g>
<g>
</g>
<g>
</g>
<g>
</g>
<g>
</g>
<g>
</g>
<g>
</g>
<g>
</g>
<g>
</g>
<g>
</g>
<g>
</g>
<g>
</g>
<g>
</g>
<g>
</g>
<g>
</g>
</svg>
